<svg id="Layer_2" data-name="Layer 2" xmlns="http://www.w3.org/2000/svg" viewBox="0 0 493.17 493.17"><defs><style>.cls-1{fill:#231f20;}.cls-2{fill:#7d7e82;}</style></defs><title>logo</title><circle class="cls-1" cx="246.51" cy="246.59" r="12.4"/><path class="cls-1" d="M250.08,3.49C113.89,3.49,3.49,113.89,3.49,250.08s110.4,246.59,246.59,246.59,246.59-110.4,246.59-246.59S386.27,3.49,250.08,3.49Zm0,319a72.42,72.42,0,1,1,72.42-72.42A72.42,72.42,0,0,1,250.08,322.5Z" transform="translate(-3.49 -3.49)"/><path class="cls-2" d="M370.67,55.5,285.42,186.75l.23.3A72.57,72.57,0,0,1,319.57,230L466.17,162.5S441.33,92,370.67,55.5Z" transform="translate(-3.49 -3.49)"/><path class="cls-2" d="M128.25,444,213.5,312.73l-.23-.3c-16.28-9.23-27.76-24.87-33.05-43.22L32.75,337S57.58,407.48,128.25,444Z" transform="translate(-3.49 -3.49)"/></svg>